<?xml version="1.0" encoding="UTF-8"?>
<svg version="1.1" viewBox="0 0 2048 1420" width="659" height="457" xmlns="http://www.w3.org/2000/svg">
<path transform="translate(0)" d="m0 0h2048v1420h-2048z" fill="#FCFCFC"/>
<path transform="translate(909,127)" d="m0 0h152l15 2 17 5 9 2 8 2 20 7 24 9 18 8 16 8 7 3 24 13 16 10 19 13 16 12 14 11 13 12 8 7 13 12 9 9 7 8 24 28 12 17 11 16 12 20 13 24 7 14 12 26 7 20 8 24 9 37 6 28 2 13 1 31v45l-1 36-3 25-10 42-4 17-12 34-5 15-12 25-8 16-7 12-6 11-10 16-6 9-21 28-8 9-8 10-7 7-4 6-8 7-11 11-8 7-10 10-2 1 1 6 8 12v5l-5 6-10 6-10 7-11 7-16 11-5 4-5 2-8 6-6 2-7-1-11-12-7 1-13 5-16 8-12 5-41 15-48 12-29 5-2 1-36 2-13 1h-31l-33-2h-18l-3-2-38-8-24-6-14-4-17-6-17-7-10-3-24-11-16-8-9-4-5 1-7 8-7 3-9-2-9-6-15-11-17-12-11-8-8-6-6-7-1-6 3-6 4-5 1-4-7-8-35-35-8-10-9-11-10-13-13-19-8-12-7-11-13-24-7-15-10-21-3-8-7-19-8-22-2-7-2-11-8-30-2-11v-157l3-16 5-16 7-30 14-37 5-14 8-16 8-17 12-22 7-11 8-12 4-7 8-10 12-16 9-10 4-6 11-11 7-9 8-7 11-11 16-14 9-7 9-8 10-7 15-11 13-8 11-7 14-8 10-5 3-3 8-2 30-15 9-2 6-3 31-11 1-1 14-2 19-6 5-1z" fill="#FDFDFD"/>
<path transform="translate(909,127)" d="m0 0h152l15 2 17 5 9 2 8 2 20 7 24 9 18 8 16 8 7 3 24 13 16 10 19 13 16 12 14 11 13 12 8 7 13 12 9 9 7 8 24 28 12 17 11 16 12 20 13 24 7 14 12 26 7 20 8 24 9 37 6 28 2 13 1 31v45l-1 36-3 25-10 42-4 17-12 34-5 15-12 25-8 16-7 12-6 11-10 16-6 9-21 28-8 9-8 10-7 7-4 6-8 7-11 11-8 7-10 10-2 1 1 6 8 12v5l-5 6-10 6-10 7-11 7-16 11-5 4-5 2-8 6-6 2-7-1-11-12-7 1-13 5-16 8-12 5-41 15-48 12-29 5-2 1-36 2-13 1h-31l-33-2h-18l-3-2-38-8-24-6-14-4-17-6-17-7-10-3-24-11-16-8-9-4-5 1-7 8-7 3-9-2-9-6-15-11-17-12-11-8-8-6-6-7-1-6 3-6 4-5 1-4-7-8-35-35-8-10-9-11-10-13-13-19-8-12-7-11-13-24-7-15-10-21-3-8-7-19-8-22-2-7-2-11-8-30-2-11v-157l3-16 5-16 7-30 14-37 5-14 8-16 8-17 12-22 7-11 8-12 4-7 8-10 12-16 9-10 4-6 11-11 7-9 8-7 11-11 16-14 9-7 9-8 10-7 15-11 13-8 11-7 14-8 10-5 3-3 8-2 30-15 9-2 6-3 31-11 1-1 14-2 19-6 5-1zm25 5-24 2-28 3-22 5-31 9-15 4-21 8-8 4-12 4-19 10-12 5-9 6-13 8-8 4-12 9-12 8-18 14-10 8-2 4-5 2-6 4v4l30 5 11 3 9 1 14 6 17 10 10 9 9 10 10 16 1 8 3 8 4 19v28l-3 19-3 18-1 5-2 1h2l-2 10-6 16-8 19-6 16-6 14-12 34-4 15-4 31-1 28v29l1 33 4 20 6 19 2 2h23l-4 8-10 13-9 13-1 2v18l6 11 4 6-1 6-9 12-2 4v55l7 9 1 6-3 5-5 4v11l4 6v10l5 4 11 7 9 7 22 13 11 7 8 3 17 8 9 4 33 12 14 4 35 7 34 5 13 1h38l22-2 32-5 25-5 22-6 21-8 15-5 24-12 7-3 18-11 15-9 10-8 11-6v-4l-14-11-7-9-6-9-5-14-2-8v-16l4-15 8-15 5-8 9-7 11-8 11-4 10-3 1-1-1-14-7-8v-5l5-3 3-4v-29l-11-22-15-1 7-9 5-10 4-17v-17l-5-28-6-17-10-25-7-17-6-14-2-8-7-15-8-19-2-12-3-11-4-23-1-10v-32l3-21 4-17 2-6 2-11 9-21 11-22 11-18 7-11 8-11 11-14 7-8 5-5 5 5 14 17 13 18 12 19 12 22 9 21 8 22 2 8 5 39v20l-5 42-4 14-7 19-8 20-13 31-4 11-9 21-4 14-8 32-1 6v10l5 16 3 5 3 8 6 8 1 2-9 1-3 7-7 13v31l6 5 2 1-1 7-7 6v15l7 3 10 4 9 6 12 11 6 10 6 13 3 11v19l-3 12-8 17-7 9-10 9-15 8-19 3-2 1 2 6 10 14 7 10 11 16 5 7 6-4 14-12 1-3 4-2 18-18 9-10 7-9 11-13 8-11 6-8 7-11 9-13 13-23 5-9 10-21 5-10 10-27 7-20 12-49 4-24 3-42v-43l-3-45-3-18-5-23-10-39-15-40-12-25-8-16-15-26-13-19-8-11-10-13-14-17-14-15-4-5-7-6-4-5-8-7-12-11-10-8-14-11-19-13-11-8-35-21-8-3-19-10-44-17-46-13-19-4-36-4-13-1z" fill="#97059F"/>
<path transform="translate(642,260)" d="m0 0 4 1v3l3-2 8 1 9 2h14l19 7 16 8 9 4 17 16 11 17 5 13 3 18v40l-2 14-1 12-7 23-9 24-7 17-6 14-5 15-9 23-4 15-2 23-2 15-1 14v49l2 23 4 24 4 13v2l-9 1h-12l-4-5-6-16-4-17-2-22v-112l2-34 4-27 4-16 7-22 5-10 2-9v-16l-3-10-7-10-8-5-14-4-22-2-4-1v6l22 1 15 3 7 4 7 10 2 6 1 13-2 12-10 25-6 22-2 14-2 24-1 135 2 26 3 19 7 17-5 1h-18l3 7 9 12 11 16 1 2v19l-10 13-1 7 7 9 5 7v57l-9 9v5l11 9 1 2v9l-3 6v9h4l-1-1v-8l2-2h23l2 1 1 4-2 6-3 1h-20l-2 5-8 9-10 13-13 16-8 10-4-1-34-34v-2h-2l-9-11-10-11-14-19-13-19-10-16-12-21-8-16-8-18-11-28-6-18-8-29-7-30-2-13-3-40v-59l3-40 4-24 7-27 5-18 5-16 6-16 6-15 7-16 8-15 4-9 14-23 6-10 8-11 9-13 13-17 12-13 6-8 8-7 8-10z" fill="#FDFDFD"/>
<path transform="translate(964,188)" d="m0 0 6 1 3 9 3 8 4 1-1-12 1-3h15v7l-3 9h6l2-12 1-3 3 1 12 1 3 3 3 13 3-9 2-2 10 2 6 3-1 6-2 2v4l6-1 4-4 2-3 4 2 2 4 8 4 1 5-6 10v3l5-2 2-3 2-6 5 2 9 7 3 3-1 4-7 5 1 3 5 1 2-4 3-4 4 1 7 7 2 3-1 4-9 9 7-2h7l4 4 3 5-1 4-7 4-5 1 1 3 7-1 3-3h4l3 16-15 8-1 4 11-4 3 1 2 9 2 7-3 2-10 1 1 4 13-1 2 3-1 8 1 5-2 2-9 3-8 3h-18l-11 8-1 2h-2v6l5 5 4 3 4 2v17l-7 44-5 39-9 11v3l5 1 6 2 1 2 2 43v47l-1 14-5 24-6 18-4 8-12 16-14 10-16 7-33 8-12 1h-28l-15-2-24-6-17-8-15-10-8-10-9-12-8-16-5-14-3-16-1-12v-89l2-4 6-3h2l-2-7-8-10-2-42-2-18v-37l9-5 3-3-1-5-5-7-8-5-27-2-8-4-1-1v-15l1-1h8l7 1v-5h-8l-4-2 2-6 1-10 8 1 7 2-1-6-14-1v-21l4-1 7 6 6 1v-7l-10-2-3-3 1-6 5-10 4-1 4 5 7 3v-6l-9-2-1-4 6-9 3-4 5 2 3 4v2h6l-1-5-5-3-2-5 3-3 7-4 2-2 5 1 7 8h3v-5l-6-8 1-5 14-7 4 8 1 4h6l1-5-8-7 1-5 9-7h10l3 11 5-1-1-9-1-5 5-3 4-2h6l2 6 1 5 5 1-3-14 17-1 3 2-1 6-2 3v3h8l3-11 7-3z" fill="#95039D"/>
<path transform="translate(853,705)" d="m0 0h103l9 6 4-1 5-5h105l6 5 1 2v7h40v27l6-1h8l8 4 3 5v9l-4 4-7 3h-14v60h16l8 5 1 1v10l-6 7-2 1h-17v57l-4 1-32-2-98-5-5 5-4 3-9 3h-10l-10-4-6-6h-24l-77 4-23 1-11 1-1-1-1-56-17-1-7-8v-7l4-7 4-2h17v-60h-17l-6-5-2-4 1-9 6-6 3-1h15v-26l4-1h26l5-8z" fill="#96049D"/>
<path transform="translate(1238,242)" d="m0 0 5 4 10 13 11 14 16 24 13 23 6 13 11 28 4 14 5 39v20l-5 42-4 14-7 19-8 20-13 31-4 11-9 21-4 14-8 32-1 6v10l5 16 3 5 3 8 6 8v2l-9 1-1 6-8 14v31l5 4 3 2-1 7-7 6v15l12 4 11 6 15 14 6 10 6 13 3 11v19l-3 12-6 13h-9l-2 4-8 10-15 9-9 3-14 2h-11l-11-2-12-6-9-6-9-9-7-11-6-17-1-6v-11l3-13 6-13 7-10 7-7 11-7 13-5h5l1 34-2 6-4 2-3 5 2 6 7 6v9l5 1-3 12 4 9 3 1h7l5-5 2-4v-5l-4-4 1-3 4-3 2-10 6-4h2l-2-10-6-3-1-2-1-34-2-2v38l3 4-1 1h-21l-1-4 1-3v-32l-1-4h-2l-1-7h-3v-2l3-1-1-14-7-8v-5l6-4 2-3v-29l-8-16-2-5-16-1 3-5 4-5 5-10 4-17v-17l-5-28-6-17-10-25-7-17-6-14-2-8-7-15-8-19-2-12-3-11-4-23-1-10v-32l3-21 4-17 2-6 2-11 9-21 11-22 11-18 7-11 8-11 11-14 7-8 4-5z" fill="#96049E"/>
<path transform="translate(711,917)" d="m0 0 9 2 6 4 10 7 18 12 24 13 12 6 27 12 16 5 28 9 17 4 48 7 16 1h42l19-1 33-5 3-1 16-2 25-7 27-9 17-7 15-7 8-3 10-6 22-12 14-10 6-4 11-7h13l8 4 5 5 9 11 10 16 9 11 5 9-2 4-18 14-11 7-11 8-14 8-17 10-34 17-8 2-13 6-21 8-17 4-21 6-28 6-17 2-24 2-10 1-29 1-35-1-18-2-24-2-29-6-31-8-15-4-25-9-12-5-7-2-14-7-16-7-23-13-13-7-11-8-12-8-17-13-10-8 1-4 8-9 13-17 15-18 8-4z" fill="#FDFDFD"/>
<path transform="translate(875,355)" d="m0 0h70l1 1v40l1 22 6-2 1-60 4-1h17l1 1 1 59 1 8 3-1 1-5v-61l3-1h61l1 1v33l6 8-2 26-4 35-3 36-3 24-2 6v7h2v-2h2l2-4 4-4 11 14 8 8 5 10-1 4-22-8-5-2 2 9 4 10 2 7v7l-2-2-5-12-1-7h-7v4l4 2 5 8 2 11h3v-2h2l1 5 4 9 2 9 2 3v12h-5l-7-9-3-5-6-8-8-13-6-9-3-1v2l2 1h-2v89l-1 3-4-2-12-13-22-26-4-5-7-6-3-1 2-4-9 1-1 3-5 3-7 7-1 2h-2l-2 4-16 17-7 7-10 13-6 1-3-1-1-82-1-3-5 5-7 10-4 8-11 14-5 2-1-1v-13l8-28 5-17 4-12 1-8-20 9-7 2h-4l-1-4 4-6 5-6 5-5 7-9 3-3 3-1 1-6-1-4-1-21-3-23-2-27-4-29v-15l4-3v-6l-1-1-1-8v-10l-4-2 2-4z" fill="#FCFCFC"/>
<path transform="translate(854,711)" d="m0 0h101l7 6 1 5v153l-18-4-18-1h-53l-24-1-1-1v-13l1-28v-61l-1-29v-21z" fill="#FCFCFC"/>
<path transform="translate(976,711)" d="m0 0h102l3 3 1 3v135l1 16-1 1-19 1h-69l-14 2-10 3-1-2v-156z" fill="#FCFBFC"/>
<path transform="translate(936,264)" d="m0 0h55l11 3 11 8 10 8 10 11 10 16 8 12 4 10v38l-1 10h-2l-1-21-2-7-3-5-2-12-3-11-4-1 5 16 1 7-2 5-130 1h-39l-2-2v-12l2-1 2 8h3l2-11 2-4v-6l-1-2 2-4 5-3 6-11 8-8 10-7 11-6 7-4 7-3 3-5-11 4-5 4-2 3-9 4-8 5-13 11-9 14-3 6v8l-2 4-2-5-3 1 1-9 8-16 8-11 7-8 17-12 13-8z" fill="#FCFCFC"/>
<path transform="translate(645,252)" d="m0 0 3 1-1 3 30 5 11 3 9 1 14 6 17 10 10 9 10 11 10 16 1 8 3 8 4 19v28l-3 19-3 18-2 6v7l-7 19-8 19-6 16-6 14-12 34-4 15-4 31-1 28v29l1 33 4 20 6 19 1 1h17l6 1-1 5-12 16-9 13-1 2v18l6 11 4 6-1 6-9 12-2 4v55l7 9 1 6-4 6-4 3v11l4 6-1 10-5-1 1-10h-25l-1 1v8l1 2h-5l-1-1v-9l3-6v-9l-5-5-7-6v-5l8-7 1-2v-57l-12-16 1-7 8-10 2-3v-19l-7-11-16-22v-4l4-1h18l-7-17-3-19-2-26 1-135 3-32 5-22 6-16 5-13 2-6 1-11-2-14-7-11-7-4-15-3-20-1-2-1v-6l26 2 16 5 6 4 7 9 3 7 1 5v16l-3 11-6 13-7 23-4 22-2 15-2 34v112l2 22 4 17 7 18 2 2h21l-5-15-4-24-2-23v-49l2-22 2-14 1-16 5-18 11-28 5-15 9-20 7-19 5-14 5-17 2-22 1-4v-40l-4-22-7-14-10-14-15-14-8-3-16-8-19-7h-14l-12-3h-5l-3 1v-3l-6 1-10 9-6 8-8 7-6 8-1-3 3-6v-3l3 1v-2l3-3 5-1 1-4h2l1-3h2l2-5 4-3 1-3 5-1z" fill="#AC18B7"/>
<path transform="translate(1223,786)" d="m0 0h5l1 34-2 6-4 2-3 5 2 6 7 6v9l5 1-3 12 4 9 3 1h7l5-5 2-4v-5l-4-4 1-3 4-3 2-10 6-4h2l-2-10-6-3-1-2v-37l7 1 11 6 10 7 9 11 6 10 2 10 2 6v16l-5 19-6 10-10 12-15 9-9 3-14 2h-11l-11-2-12-6-9-6-9-9-7-11-6-17-1-6v-11l3-13 6-13 7-10 7-7 11-7z" fill="#FDFDFD"/>
<path transform="translate(869,128)" d="m0 0h21l17 1v1l-18 1h-27v2l-13 4-8 3-4 4-8 1-10 4-4-1v2l-4 1v2l-11 4-12 2v2l-5 2-7 3-6 3-2 4-7 1-4 2-1 5-3 2-9 3-11 7-13 8-8 4-12 9-12 8-18 14-10 8-5 5-10 4-4 6-3 1-2-1-1 4-5 5-5 6-2 4h-5l-1 3h-2v2h-3v3l-4 10-11 12-14 19-13 19-6 9-8 14-8 12-5 12-10 19-8 21-6 15-5 15-5 19-7 26-4 20-3 32-1 16v59l1 14v21l-1 10h2l1 4 1 15 2 1 1 5-1 1v10l5 6-1 4h-3l-1 2-2-1v2l4 2-1 2 4 1 4 7-2 6v2l2 1 3 11 6 15 1 3 2 1h-2l2 4 3 9 4 9 4 7 1 6h-2l-1 4-12-24-4-11-7-19-8-22-2-7-2-11-8-30-2-11v-157l3-16 5-16 7-30 14-37 5-14 8-16 8-17 12-22 7-11 8-12 4-7 8-10 12-16 9-10 4-6 11-11 7-9 8-7 11-11 16-14 9-7 9-8 10-7 15-11 13-8 11-7 14-8 10-5 3-3 8-2 30-15 9-2 6-3 31-11 1-1 14-2 19-6z" fill="#97059E"/>
<path transform="translate(1083,1134)" d="m0 0h10l12 3 10 6 8 9 6 12 2 10v15l-3 13-7 13-9 8-9 5-8 2h-16l-13-5-10-9-6-9-4-10-1-6v-16l2-9 8-16 7-7 10-6z" fill="#070107"/>
<path transform="translate(595,1134)" d="m0 0h17l18 64 2 8v6h2l4-17 14-47 4-13 1-1h70l1 1v8l-1 6-35 1-1 23h34v13l-1 1h-33l1 28 38 1v14h-55l-1-91-1-1-10 31-13 38-7 21-1 2h-18l-3-7-18-57-8-27z" fill="#020102"/>
<path transform="translate(1048,521)" d="m0 0 5 5 8 10 7 7 5 10-1 4-22-8-5-2 2 9 4 10 2 7v7l-2-2-5-12-1-7h-7v4l4 2 5 8 2 11h3v-2h2l1 5 4 9 2 9 2 3v12h-5l-7-9-3-5-6-8-8-13-6-9-3-1v2l2 1h-2v89l-1 3-4-2-12-13-22-26-4-5-7-6-3-1 2-4-9 1-1 3-6-2-9-1-10 12-18 24-5 7h-3v-61l2-1 10 5-1-5 4 2 7 6 3 2 11 3 9 2h17l16-6 8-6 12-13 9-12 8-13 5-13 3-8 1-10 4 2v-2h2l2-4z" fill="#97049E"/>
<path transform="translate(1240,1134)" d="m0 0h11l16 3 9 6 4 6 2 7-1 8-4 8-8 7 9 6 5 6 3 8v7l-4 9-7 8-8 4-7 2-9 1h-21l-9-1v-92l7-2z" fill="#080108"/>
<path transform="translate(1223,693)" d="m0 0h40l-1 3 1 4-8 14v31l5 4 3 2-1 7-7 6v15l12 4 11 6 15 14 6 10 6 13 3 11v19l-3 12-6 13h-8l5-11 4-16v-16l-2-6-3-12-7-11-8-9-16-10-11-3-1 3-1-2v38l3 4-1 1h-21l-1-4 1-3v-32l-1-4h-2l-1-7h-3v-2l3-1-1-14-7-8v-5l6-4 2-3v-29l-8-16-1-4h3z" fill="#AB18B6"/>
<path transform="translate(755,1134)" d="m0 0h14l14 3 8 5 4 5 3 7v13l-4 8-10 9-1 2 4 2 4 5 5 15 5 19v3h-16l-3-6-5-20-4-9-4-3-12-1-3-1-1 40h-16v-94z" fill="#030103"/>
<path transform="translate(491,1134)" d="m0 0h18l6 9 16 29 13 25 3 9h2l-1-3-1-18v-51h15v96h-16l-6-9-13-24-9-16-11-23v-2h-2l1 5v69h-15z" fill="#020102"/>
<path transform="translate(1464,1134)" d="m0 0h18l5 8 14 25 14 27 5 11 2 1-1-2-1-13v-57h14l1 1v95h-17l-8-14-16-29-15-30v73h-15z" fill="#020102"/>
<path transform="translate(1352,1134)" d="m0 0h18l6 9 14 26 8 14 10 22 2 1-1-3-1-15v-54h15v96h-16l-3-3-14-26-10-18-12-25-2-1 1 8v65h-15z" fill="#020102"/>
<path transform="translate(871,1134)" d="m0 0h83l2 14-26 2-1 80h-16l-1-67v-8l-1-6h-20l-3 1-1 55v18l-1 7h-16v-95z" fill="#020102"/>
<path transform="translate(1242,323)" d="m0 0 9 2 11 4 10 6 7 7 8 16 2 8v13l-3 12-8 15-7 6-11 7-11 4h-7z" fill="#FDFDFD"/>
<path transform="translate(1233,323)" d="m0 0 2 1v99h-7l-16-8-9-6-5-6-8-16-2-10 1-14 4-11 9-14 11-8 16-6z" fill="#FDFDFD"/>
<path transform="translate(730,713)" d="m0 0h7l-1 4-6 7-7 10-6 9v22l3 6 6 8 1 4-11 14-1 1v62l6 5 2 5-7 8-2 4v8h-18l-1-1-1-9-4-6-5-4 1-4 4-3 18-3 1-1v-59h-15l-14-18 1-2 20-6 8-4-2-9-3-16-9-1-11-11-11-16-1-3z" fill="#FDFDFD"/>
<path transform="translate(883,502)" d="m0 0h1l4 23 3 15 5 8 6 11 3 6 3 7 12 16 5 7 1 6-5-2-7-3-1 61 3-1 12-17 9-11 10-13 4-2 12 2-12 14h-2l-2 4-16 17-7 7-10 13-6 1-3-1-1-82-1-3-5 5-7 10-4 8-11 14-5 2-1-1v-13l8-28 5-17 4-12 1-8-20 9-7 2h-4l-1-4 4-6 5-6 5-5 7-9 3-3 3-1 1-6-1-4z" fill="#AC18B7"/>
<path transform="translate(408,1134)" d="m0 0h15l1 1v55l2 13 4 8 6 4 10 1 7-3 5-6 2-5 1-6 1-61 1-1h15v62l-4 16-4 6-5 5-6 4-11 3h-12l-10-3-9-6-6-9-3-12-1-13v-52z" fill="#020102"/>
<path transform="translate(909,127)" d="m0 0h152l15 2 5 1-1 2 3 1 1 4 4-1 1 3h-3l6 2h5l3 3 7-1 2-2 5 1v4l14 6 7 2 8 3h2l1-3 3 3v3l5 2 7 2 10 4h5l7 4 1 3 9 4 1-2 1 4 4-1 2 1v2l10 6v2l5 1 5 5 5 1v2l6 2 3 3v2h2v2l7 1 4 5 8 4 1 3 5 2 4 2 4 5 5 5 1 2-4-2-5-2-12-9-17-12-10-7-35-21-8-3-19-10-44-17-46-13-19-4-36-4-13-1h-74l-24 2-28 3-22 5-31 9-15 4-21 8-8 4-12 4-16 8-1-4 8-4h4l2-4 12-6 6-1v-2l9-3 7-1 4-2h3v-2l4-1v-2l7-1 11-4 5-1 3-3 8-3 10-3h3v-2l10-1h25l-7-1v-1z" fill="#AB18B6"/>
<path transform="translate(1290,1134)" d="m0 0h53v14l-1 1h-36l1 23 34 1v9l-1 5h-34l1 28 38 1v14h-55z" fill="#020102"/>
<path transform="translate(1242,430)" d="m0 0 8 1 13 8 7 6 8 12 3 11 2 18-1 7-5 13-9 11-8 7-11 5-6 1-1-1z" fill="#FDFDFD"/>
<path transform="translate(1230,430)" d="m0 0h5v99l-9-1-11-6-10-10-6-9-3-15v-11l3-18 6-10 7-8 10-7z" fill="#FDFDFD"/>
<path transform="translate(644,371)" d="m0 0 26 2 16 5 6 4 7 9 3 7 1 5v16l-3 11-6 13-7 23-4 22-2 15-2 34v112l2 22 4 17 7 18 2 2 20 1v1l-8 1-1 3h-33l11 16 9 10 3 3 9 2 4 16 2 9-6 4-15 5h-8l-1-3 3-6 4-5v-19l-7-11-16-22v-4l4-1h18l-7-17-3-19-2-26 1-135 3-32 5-22 6-16 5-13 2-6 1-11-2-14-7-11-7-4-15-3-20-1-2-1z" fill="#AC18B7"/>
<path transform="translate(1083,1148)" d="m0 0h9l8 3 5 4 5 8 3 10v18l-3 10-5 8-6 5-5 2h-12l-8-4-6-7-4-9-1-4v-19l4-12 6-8z" fill="#FDFDFD"/>
<path transform="translate(833,1134)" d="m0 0h9l14 3 4 3-3 11-4 1-5-2-14-1-8 3-3 3-1 6 3 6 6 4 19 8 10 9 3 7 1 8-2 9-6 9-7 5-9 3-5 1h-12l-16-4-3-3 2-10 1-2 16 4h12l9-3 2-5v-8l-4-5-28-14-6-7-3-8v-8l4-10 7-7 11-5z" fill="#020102"/>
<path transform="translate(645,252)" d="m0 0 3 1-1 3 30 5 11 3 9 1 14 6 17 10 10 9 10 11 10 16 1 8 3 8 4 19v28l-3 19-3 18-2 6v7l-7 19-8 19-6 16-6 14-12 34-4 15-4 31-1 28v29l1 33 3 16v7h-2v2h-2l-4-24-2-23v-49l2-22 2-14 1-16 5-18 11-28 5-15 9-20 7-19 5-14 5-17 2-22 1-4v-40l-4-22-7-14-10-14-15-14-8-3-16-8-19-7h-14l-12-3h-5l-3 1v-3l-6 1-10 9-6 8-8 7-6 8-1-3 3-6v-3l3 1v-2l3-3 5-1 1-4h2l1-3h2l2-5 4-3 1-3 5-1z" fill="#AC18B6"/>
<path transform="translate(853,705)" d="m0 0h103l9 6 4-1 5-5h105l6 5 1 2v7l-2 5-1 12h-1l-1-19-1-5h-104l-6 5v158l-4 3-5-2 2-1-1-29v-124l-2-6-5-4h-101l-4 4v21l1 29v61h-1l-1-60-1-27v-23l-5 1 2-6z" fill="#AC18B7"/>
<path transform="translate(1141,1134)" d="m0 0h52v14l-1 1h-35v26l34 1v9l-1 5-32 1-1 39h-16z" fill="#020102"/>
<path transform="translate(957,1134)" d="m0 0h16l3 5 12 27 4 10h2l6-15 11-25 4-2h15l-2 6-13 24-12 22-2 5-1 39h-16l-1-40-26-52z" fill="#020102"/>
<path transform="translate(944,554)" d="m0 0 10 1 4 2h14l9-3h7l15 5 3 5-1 5-9 10-9 6-11 4h-20l-10-3-9-6-9-9-3-4 1-5 3-3 9-3z" fill="#97059F"/>
<path transform="translate(1037,323)" d="m0 0 5 1 4 14 1 9 4 6 1 7v20h2v-10h1v11l-2 2-4 1-1 7-2-4v-31h-64l1 7v54l-2 6h-3l-2-8-1-59h-21v60l-3 2h-4l-1-5-1-17v-40h-36l-34-1-1 2v-4l-2-1 39-1 130-1 1-8-5-15z" fill="#AC18B7"/>
<path transform="translate(1329,289)" d="m0 0 5 2 5 4 3 3-1 2h2l7 8 2 4 4 2 2 7 3 1 2 3v3l3-1 7 6 1 4 3 5 3 3 4 9 6 9 9 17 5 8 6 12 5 13 8 17 4 10 4 17 3 5 1 5 2 7 1 7 3 13 1 11 2 5 1 12 2 9v6l-2 2v17h-1l-2-22-5-26-12-47-15-40-12-25-8-16-15-26-13-19-8-11-10-13-11-14-2-4z" fill="#AB18B6"/>
<path transform="translate(1222,780)" d="m0 0 6 1 1 7h2l2 2v34l-1 6h21l-3-4v-41l2 3 2-1 1 39 6 2 2 4v7l-6 4h-2l-1 10-5 4 2 4 2 2-1 7-4 6-3 2h-7l-4-2-4-9 3-10 1-2-5-1-1-9-8-7-1-5 4-6 4-2 1-5v-34l-11 3-12 6-3 1v-2l-2-1 6-5 10-4 2-3z" fill="#AB17B6"/>
<path transform="translate(495,663)" d="m0 0h1l2 19 5 24 6 23 8 28 12 31 7 16 12 25 15 26 16 24 16 21 9 11 10 11v2h2l7 8 28 28-1 2-4-2-6-5-4-5-5-5-8-7-3-1-1-2-5-3-5-6-3-3v-2h-2l-5-6v-2h-2l-5-6-1-3-4-4-7-8-5-8-5-5v-3h-2l-3-5-2-4-6-8-7-11-2-3v-3h-2l-5-13-1-3h-2l-2-3-4-2-1-6 1-4-4-8-3-5-5-12-2-9-5-10-1-5-4-10-2-6 2-5-3-5v-2l-4-1-1-3-2-1v-2l6-1-1-5-4-5v-11l1-5-3-1-1-19h-2v-10z" fill="#AC18B7"/>
<path transform="translate(1198,514)" d="m0 0 4 2 8 8 10 7 14 5 1 1 1 106h-2l-3-17-8-32-7-24-2-11-12-34-4-8z" fill="#FDFDFD"/>
<path transform="translate(1277,514)" d="m0 0 1 3-8 21-4 13-7 24-9 33-3 20-3 14-2 1v-106l7-3 10-4 11-8z" fill="#FDFDFD"/>
<path transform="translate(1048,521)" d="m0 0 5 5 8 10 7 7 5 10-1 4-22-8-5-2 2 9 4 10 2 7v7l-2-2-5-12-1-7h-7v4l4 2 5 8 2 11h3v-2h2l1 5 4 9 2 9 2 3v12h-5l-7-9-3-5-6-8-8-13-7-10-2-4 12-20 3-9 2-3 5-17z" fill="#FCFCFC"/>
<path transform="translate(575,1134)" d="m0 0h16l1 9v22l-1 65h-16z" fill="#020102"/>
<path transform="translate(1436,1134)" d="m0 0h16v96h-16z" fill="#020102"/>
<path transform="translate(1295,383)" d="m0 0 2 3v48l-4 26-4 15-3 5-2-1v-16l-6-15-7-8-7-7-8-6 2-2 10-5 9-7 3-1 2-4 8-14z" fill="#FDFDFD"/>
<path transform="translate(1182,386)" d="m0 0 3 3 8 15 7 9 13 9 9 4-1 3-9 6-11 11-4 9-4 11v16l-2 1-5-12-3-14v-12l-2-15v-41z" fill="#FDFDFD"/>
<path transform="translate(486,621)" d="m0 0 3 1 1 3 2-1v11h2l1 14v21l-1 10h2l1 4 1 15 2 1 1 5-1 1v10l5 6-1 4h-3l-1 2-2-1v2l4 2-1 2 4 1 4 7-2 6v2l2 1 3 11 6 15 1 3 2 1h-2l2 4 3 9 4 9 4 7 1 6h-2l-1 4-12-24-4-11-7-19-8-22-2-7-2-11-8-30-1-6z" fill="#96049E"/>
<path transform="translate(907,582)" d="m0 0 4 1 6 7v2l4 2 2 4h2l1 3-5-2-7-3-1 61 3-1 12-17 9-11 10-13 4-2 12 2-12 14h-2l-2 4-16 17-7 7-10 13-6 1-3-1v-40l1-44z" fill="#FDFDFD"/>
<path transform="translate(1164,972)" d="m0 0h3l6 20 3 15-1 4-7 1-19-19 1 7-3 3 1 4 12 11-1 2-8 1-9-9-7-3 1 8 2 4v6l-2 1-5-5-10-22-2-3 1-5 4-3 13-5 6-2 3-2h4l4 6 4 5 6 4v2h2l-1-9-3-10v-5z" fill="#AB17B6"/>
<path transform="translate(1009,441)" d="m0 0h13l6 3 5 6 1 2v7l-6 9-8 5h-14l-9-4-4 1 4 3v2l6 2 2 4 10 2-1 2h-6l-18-9-5-8-1-6 6-9 10-8 5-3z" fill="#96049D"/>
<path transform="translate(906,441)" d="m0 0h14l12 7 8 9 3 4-1 5-6 10-11 6-6 3-4-1 10-7 6-4 3-5-11 5-12 1-7-3-5-5-4-5-1-8 3-6 6-5z" fill="#97049E"/>
<path transform="translate(914,595)" d="m0 0 11 5-1-5 4 2 7 6 3 2 9 2 1 6-4 7-14 18-9 12-5 7h-3v-61z" fill="#96049D"/>
<path transform="translate(1022,577)" d="m0 0 2 1 1 50v39l-1 3-4-2-12-13-22-26-4-5-8-7v-2l10-5 5 5 13 16 8 11 9 11-2-36-1-24-5 2-5 4h-2l2-4 12-12z" fill="#FDFDFD"/>
<path transform="translate(693,800)" d="m0 0h16l1 19v40l-1 1-10 1h-9l1-9v-40l1-11z" fill="#96049D"/>
<path transform="translate(1061,977)" d="m0 0 4 1v3l2 1-1 2-3 2 4 2-17 4-11 1-15 3-21 3-19 1h-42l-24-2-20-3 3-3v-2l5-1h13l5 2 1 4h3v2h15l14 1h24l22-2-1-1-5-1-6-1 1-2h7v-2l-3-1 40-6z" fill="#9907A1"/>
<path transform="translate(1008,1017)" d="m0 0 9 1 7 8 2 5v16l-4 7-5 4-3 1h-7l-7-6-4-8-1-4v-10l4-8 6-5z" fill="#AC18B7"/>
<path transform="translate(762,966)" d="m0 0 9 2 4 4 2 6-1 9-3 9-4 5-9 5h-6l-8-5-3-4-1-3v-7l5-10 4-5 5-4z" fill="#AD19B8"/>
<path transform="translate(1276,986)" d="m0 0 4 2 4 6v4l-14 10-18 11-6 5-12 7-13 10-4 1-3-7-3-4 8-6 8-4 25-17 19-14z" fill="#FDFDFD"/>
<path transform="translate(1214,782)" d="m0 0h7l-18 9-2 7-8 7-8 11-6 16-2 9v11l3 13 5 12 8 11 8 8 9 5-4 5-6-2-11-9-7-9-6-9-5-14-2-8v-16l4-15 8-15 6-9 9-7 11-8z" fill="#AB17B6"/>
<path transform="translate(874,1010)" d="m0 0h12l4 2 4 6 1 3v11l-4 9-6 8-2 1h-7l-12-4 1-9 6-22z" fill="#AC18B7"/>
<path transform="translate(653,978)" d="m0 0 8 6 11 9 19 14 19 12 8 6-2 4-4 5-6-2-17-12-18-13-12-9-14-9 6-8z" fill="#FDFDFD"/>
<path transform="translate(783,977)" d="m0 0 5 1 1 3-5 14-1 5h3l2-5 7-9 2-2 7 1 1 1-1 7-4 16h3l2-6 6-10 6-2 2 1-2 6-13 19-6 8-7-1-1-5 4-13v-8l-9 12-5 6-4 1-3-3 5-28 4-8z" fill="#98069F"/>
<path transform="translate(1234,275)" d="m0 0 2 1-1 40-19 7-14 9-3 1 1-6 20-34 10-14z" fill="#FDFDFD"/>
<path transform="translate(1242,275)" d="m0 0 4 2 18 27 12 22 2 6-5-2-13-8-17-5-1-1z" fill="#FDFDFD"/>
<path transform="translate(1233,784)" d="m0 0h16l1 1 1 41 3 4-1 1h-21l-1-4 1-3v-39z" fill="#FDFDFD"/>
<path transform="translate(1239,1187)" d="m0 0h14l9 3 5 6 1 2v7l-3 6-5 4-7 2h-15v-29z" fill="#FDFDFD"/>
<path transform="translate(756,1147)" d="m0 0h10l9 2 6 7 1 8-3 7-4 4-5 2-13 1-4-1v-27z" fill="#FDFDFD"/>
<path transform="translate(880,523)" d="m0 0 4 1 3 6 2 14 9 16 7 11-1 5-5-2-7-8-5-5 1-16-20 9-7 2h-4l-1-4 4-6 5-6 5-5 7-9z" fill="#FDFDFD"/>
<path transform="translate(940,566)" d="m0 0h8l9 4 5 2 9-1 5-3 9-2 11 1 1 4-8 7-12 6-6 1h-9l-9-2-12-6-7-6 2-4z" fill="#FDFDFD"/>
<path transform="translate(734,946)" d="m0 0 3 1 1 2v7l-2 18 3-3 7-11 2-2 5 1-1 5-9 13-9 15-5-1-3-2 2-11 1-6v-8l-10 16-2 2-4-1-1-3 7-12 7-10 6-9z" fill="#9906A0"/>
<path transform="translate(909,1015)" d="m0 0h9l7 6 2 4v4l-6-1-6-4-6 1-3 4-1 3v11l2 4 4 2 5-1 2-2 1-4h-5l-2-2 1-5 5-1 8 3v8l-3 8-4 3-10 1-6-3-4-5-2-5v-12l4-9 6-7z" fill="#9C09A4"/>
<path transform="translate(693,743)" d="m0 0 9 1 3 3 4 17 1 6-6 4-15 5h-8l-1-3 3-6 4-5 1-20z" fill="#97059F"/>
<path transform="translate(1222,934)" d="m0 0 4 4 1 3-9 6-2 1v6l5 2 1-3 6-4 5-1 1 5-5 6-5 2 1 5 3 3 4-2 8-6 3-1 3 3-1 5-15 10h-6l-9-13-12-16 4-3 10-7z" fill="#9A08A2"/>
<path transform="translate(1111,994)" d="m0 0h5l1 6-4 3-10 3-1 4 2 2 9-2h6l2 5-9 4-4 2v5l1 1h8l6-2h5v6l-6 3-11 4h-6l-2-2-4-17-4-9-2-6 1-3 9-4z" fill="#AB17B6"/>
<path transform="translate(919,988)" d="m0 0 25 1h55v2l-5 1v2l6-1 5 2-2 2-22 2h-25l-28-2v-2h-3v-2l-5-2z" fill="#96049D"/>
<path transform="translate(1239,1147)" d="m0 0h11l9 2 5 5 1 8-2 5-5 5-12 2h-7l-1-1v-25z" fill="#FDFDFD"/>
<path transform="translate(1037,1015)" d="m0 0h2l2 5h-4v2h-2l1 7 8-1 2-1 1-6 2-2h-2l1-2h4l2 9-3 7 1 5 8 8 1 4-7 1-11-12h-6l3 15-6 1-2-4-3-15-2-11-2-5v-3z" fill="#97059F"/>
<path transform="translate(845 1e3)" d="m0 0 12 2 12 4-1 5h-7l-6-2h-5l-1 7 12 3 1 1v5l-5 1-12-2v8l13 4 1 1v5l-11-1-9-1-3-4 2-11 4-17z" fill="#98069F"/>
<path transform="translate(707,929)" d="m0 0 5 1v4l-7 9-1 2 13-4h8l3 3-2 3-13 3-2 1-3 19-2 5-5-2-1-1v-7l3-12h-6l-8 8-5-1 1-5 8-9 9-12z" fill="#9B09A3"/>
<path transform="translate(934,1019)" d="m0 0h13l9 1 1 4-3 3h-14v6l13 2 1 1v5l-1 1-15 1-1 7 16 2 1 1v5l-1 1h-21l-2-1 1-16 2-20z" fill="#AA17B5"/>
<path transform="translate(1233,718)" d="m0 0h16l1 1v30l5 1v1h-27l3-2h2l-1-5v-25z" fill="#FDFDFD"/>
<path transform="translate(1077 1e3)" d="m0 0h8l5 5 1 4-6-1h-8l-2 1 1 4 3 1 11 1 5 3 4 7-1 7-5 5-6 2h-6l-8-4-1-6 1-1 7 1 3 3 5-1 2-6-3-2-15-2-4-4v-9l4-6z" fill="#AC18B7"/>
<path transform="translate(1223,693)" d="m0 0h37l-1 5-7 12-7 3h-11l-6-8-5-10z" fill="#FDFDFD"/>
<path transform="translate(884,563)" d="m0 0 5 5 8 7 3 1-2 4-7 10-5 10-7 7-4-1 2-6-2 5-2 1v-7l8-26z" fill="#FCFCFC"/>
<path transform="translate(1192,955)" d="m0 0h9l3 2v5l-3 2-6-2-4 3 1 10 9 10 6-1 2-3 1-8 5 1 1 1v12l-6 5-2 1h-8l-6-4-7-8-3-7v-12l4-5z" fill="#AD19B8"/>
<path transform="translate(1214,782)" d="m0 0h7l-18 9-2 7-8 7-8 11-6 16-2 9v11l3 13-1 3-4-11-3-12-1-10 3-13 8-14 5-8 9-7 11-8z" fill="#9806A0"/>
<path transform="translate(1293,880)" d="m0 0h5l-1 5-7 9-11 10-15 8-21 3-1 2-2-6-9-1v-1l25-3 11-4 14-9 9-12z" fill="#9C0AA5"/>
<path transform="translate(983,496)" d="m0 0 3 1 1 9 1 1 7 1 5 5-1 9-2 2-9 2-5 3-16 8-9-3-9-5-5-4 1-3 9 2 4 3 8 3 5-1 9-6h7l5-3h2v-6l-3-3h-8l-4 1-1-4 4-11z" fill="#AB18B6"/>
<path transform="translate(1238,851)" d="m0 0h7l6 10 2 2-1 7-4 6-3 2h-7l-4-2-4-9 3-10 3-5z" fill="#97059F"/>
<path transform="translate(1017,988)" d="m0 0 1 4-3 3 2 2-14 2-19 1h-42l-24-2-20-3 3-3v-2l5-1h13l5 2 1 4h3v2h15l14 1h24l22-2-1-1-5-1-6-1 1-2 17-2h6l2 1z" fill="#AC18B7"/>
<path transform="translate(972,1020)" d="m0 0h20v5l-1 1-12 1-1 1-1 7h12l2 6-1 1-11 1-1 3v12l-1 1h-5l-1-1v-37z" fill="#AB17B6"/>
<path transform="translate(1228,757)" d="m0 0h27l-2 5-1 1-1 15h-18l-1-10-1-6-3-3z" fill="#FDFDFD"/>
<path transform="translate(1045,525)" d="m0 0 1 3-4 13-3 6-3 7-8 14-2 4 1 3h-2v2l2 1h-2v50h-1l-1-50-4 5-14 14-1 2 2 1-4 1-3-3 12-13 9-12 8-13 5-13 3-8 1-10 4 2v-2h2z" fill="#AD19B8"/>
<path transform="translate(935,271)" d="m0 0h4l-2 5-4 3-10 4-7 4-11 7-12 11-6 11-2 2h-3l-1 5 1 1v6l-3 8-2 7h-3l-3-7h-1v-7l2-3v2h2l1-3 1 4 1 1 1-7 1-5 5-9 8-11 14-12 12-6 3-1 5-5 4-3z" fill="#AD19B8"/>
<path transform="translate(491,571)" d="m0 0h1l1 11v53h-1l-1-6-2-4v-3h-2l-1 62h-1v-95l3-4 2-13z" fill="#AC18B7"/>
<path transform="translate(822,994)" d="m0 0h5l1 5-8 24v3l11 3 2 3-3 6-9-3-11-4-1-2 11-29z" fill="#9B08A3"/>
<path transform="translate(1225,832)" d="m0 0 5 1v2l22-1 3-2 4 1-1 4-5 3-2 1-1 9-1 2h-11l-4 1-2-5v-9h-6l-2-2z" fill="#FDFDFD"/>
<path transform="translate(1099,757)" d="m0 0 6 2 6 7-3 9-3 10-2 7-1 12-2 7h-3v-21l1-32z" fill="#FDFDFD"/>
<path transform="translate(1219,425)" d="m0 0h7l2 1v4l2 1-13 7-9 8-7 11-3 13-2 18-4-2-1-3 1-3v-14l6-17 9-10 10-9 4-2 1-2z" fill="#A915B3"/>
<path transform="translate(1253,424)" d="m0 0h8l-4 3 10 8 11 11 6 14 1 8v11h2l-2 5h-2l-1 2-3-23-4-9-8-11-10-7-7-4v-3l-4-2 3-2z" fill="#AC18B7"/>
<path transform="translate(1007,1025)" d="m0 0h6l6 4 1 3v13l-4 5-6 1-5-3-2-7v-10l2-5z" fill="#FDFDFD"/>
<path transform="translate(928,569)" d="m0 0 7 2 11 8 9 4 7 1h9l9-2 10-6 6-3 5-2v3l-10 9-12 5-3 1h-20l-10-3-9-6-9-9z" fill="#AC18B7"/>
<path transform="translate(911,351)" d="m0 0h39l-3 2v60h-1l-1-17v-40h-36l-34-1-1 2v-4l-2-1z" fill="#AD19B8"/>
<path transform="translate(828,767)" d="m0 0h8l1 1 2 34v9h-2l-12-32v-8z" fill="#FDFDFD"/>
<path transform="translate(760,974)" d="m0 0h6l4 4v8l-4 7-6 5-4 1-6-5v-7l6-10z" fill="#FDFDFD"/>
<path transform="translate(1132,987)" d="m0 0 2 1-4 3-6 2-2 1 1 4 5 1v-3l5-3h6l3 4-2 5-5 1-1 3h-3l2 5 2 3 3 7v6l-2 1-5-5-10-22-2-3 1-5 4-3z" fill="#AD19B8"/>
<path transform="translate(1250,785)" d="m0 0 2 3 2-1 1 39 6 2 2 4v7l-6 4h-2l-1 10-5 4-2-1-1-4h3l1-11 8-5v-3l-6-1 1-3-3-3z" fill="#AC18B7"/>
<path transform="translate(1201,506)" d="m0 0 4 4 7 8 6 5 11 5-1 2 9 3h-2l1 3v95h-1l-1-94-16-6-11-9-4-5-3-5v-5z" fill="#AC18B7"/>
<path transform="translate(878,1017)" d="m0 0 7 1 3 3 1 8-4 12-1 1h-8l-3-2v-8l4-14z" fill="#FDFDFD"/>
<path transform="translate(1016,792)" d="m0 0 3 1 1 11-1 1h-30v-6l6-2h19l1-1h-26v-3z" fill="#AD19B8"/>
<path transform="translate(1187,383)" d="m0 0 2 4h2l6 12 6 9 10 7 6 3v5h-6l-10-7-5-4-9-13-6-12-2 2v-5l5 1z" fill="#AC18B7"/>
<path transform="translate(866,792)" d="m0 0h26l1 3v10h-28v-7l6-1h11l3-1h-20z" fill="#AD19B8"/>
<path transform="translate(947,352)" d="m0 0 6 1-1 7-1 6 1 6v22l-1 4v7l2 12-6 1-1-65z" fill="#95039C"/>
<path transform="translate(680,774)" d="m0 0 1 4 4 2-4 2 8 10 5 7-1 2-1 14v38l-2 5h-1l-1-57-12-16 1-7z" fill="#AD19B8"/>
<path transform="translate(909,792)" d="m0 0h28v13h-28v-7h22l3-1v-2l-10 1h-12l-3 1z" fill="#AD19B8"/>
<path transform="translate(1164,972)" d="m0 0h3l6 20 3 15-1 4-7 1-6-6v-2l2-1 1-4 3 1v-8h-2l-4-13v-5z" fill="#96049D"/>
<path transform="translate(1236,272)" d="m0 0h1v44l-3 1 1 7-12 3-10 4-11 8-2-2 7-7 4-2v-3l10-5 12-4h2v-40-3z" fill="#AD19B8"/>
<path transform="translate(918,1087)" d="m0 0h31l2 1v3h27l19-2h37v1l-36 2-13 1h-31l-33-2h-18l1-2 13-1z" fill="#AC18B7"/>
<path transform="translate(1216,197)" d="m0 0 5 1h5v2l6 2 3 3v2h2v2l7 1 4 5 8 4 1 3 5 2 4 2 4 5 5 5 1 2-4-2-5-2-12-9-17-12-10-7-12-7z" fill="#A916B4"/>
<path transform="translate(1172,967)" d="m0 0h4l8 14 4 8 6 9-1 4-5 1-3-3-4-10-9-15-3-3v-3z" fill="#AA16B4"/>
<path transform="translate(995,1031)" d="m0 0h1v8l8 2 2 7 4 2 6-1 5-4 2 2v6l-6 5-3 1h-7l-7-6-4-8-1-4z" fill="#AC18B7"/>
<path transform="translate(1222,960)" d="m0 0 2 1 1 5 3 3 4-2 8-6 3-1 3 3-1 5-15 10h-6l-8-11 1-2 2 1v-2h2z" fill="#9906A0"/>
<path transform="translate(1242,316)" d="m0 0 12 3 10 4 12 8 4 1-2 4 1 4h-3l-8-7-13-6-13-4z" fill="#AC18B7"/>
<path transform="translate(996,877)" d="m0 0h5l-1 6-5 8-3 2h-11l-8-3 1-3z" fill="#FDFDFD"/>
<path transform="translate(935,877)" d="m0 0 6 1 13 6 7 4-3 3-5 2h-10l-5-3-3-7z" fill="#FDFDFD"/>
<path transform="translate(909,767)" d="m0 0h13v7l3-1-1-6h12l1 8-1 2h-26l-1-1z" fill="#B32BBD"/>
<path transform="translate(648,991)" d="m0 0 10 5 10 8 18 13 4 4h-5l-6-4v-3l-6 1h-2v-3h-3l-2-3-4-4h-2l-1-2-4-1-3-1v-2h-2v-2h-6l-2-2v-3l6 1z" fill="#AC18B7"/>
<path transform="translate(1093,1026)" d="m0 0 5 1 1 8-4 6-8 3h-6l-8-4-1-6 1-1 7 1 3 3 5-1 3-1z" fill="#AB17B5"/>
<path transform="translate(1192,955)" d="m0 0h9l3 2v5l-3 2-6-2-5 4-1 10 6 11 1 2-4-2-7-9-1-4v-12l4-5z" fill="#9B09A3"/>
<path transform="translate(1e3 431)" d="m0 0h16l10 3v3l-11-1-5-1h-1l-17 5-10 5-5 2v-4l11-8 8-3z" fill="#AD19B8"/>
<path transform="translate(902,579)" d="m0 0h3l-1 4-8 10-5 7-4 8-11 14-5 2-1-1v-12h2l1 5 4-2 9-12 6-11z" fill="#FDFDFD"/>
<path transform="translate(1146 1e3)" d="m0 0 3 1-2 2 1 4 12 11-1 2-8 1-9-9-7-3v2l-3 1-1-6 3-1 1-2 5-1v2l4-1z" fill="#AA16B5"/>
<path transform="translate(904,431)" d="m0 0h17l10 3 15 10v2h-5l-12-6-12-4-2-2h-6l-10 4-4-2v-2z" fill="#AC18B7"/>
<path transform="translate(1108,1018)" d="m0 0 4 1-4 2v5l1 1h8l6-2h5v6l-6 3-11 4h-6v-7l1-4h-2v-5z" fill="#A915B3"/>
<path transform="translate(1061,806)" d="m0 0h2v9l-1 1h-25l-2-1v-7l3-1 2 5v-5h5l1 6v-6z" fill="#B32CBD"/>
<path transform="translate(989,744)" d="m0 0h31v6l-1 1h-29l-1-1z" fill="#AD19B8"/>
<path transform="translate(1134,987)" d="m0 0h7l5 5 1 4h2l1 4h-4l-2 4-2 1-2-1 1-7-2-3h-6l-5 2v3l-4 1-3-3 1-4 6-3 4-1z" fill="#9A08A2"/>
<path transform="translate(717,941)" d="m0 0h8l3 3-2 3-13 3-2 1-3 19-2 5-5-2-1-1v-7h1l1 5h4l2-19-4-3h-3l-1-3 4-2v2z" fill="#AC18B7"/>
<path transform="translate(1059,743)" d="m0 0 5 1v6l-1 1h-28v-7z" fill="#AD19B8"/>
<path transform="translate(914,1034)" d="m0 0 7 1 5 2v8l-3 7-3 2h-6l-9-6 1-2 5 3 5-1 2-2 1-4h-5l-2-2 1-5z" fill="#9906A0"/>
<path transform="translate(998,844)" d="m0 0h21l1 1v5l-1 1h-29l-1-1v-5z" fill="#AD19B8"/>
<path transform="translate(931,743)" d="m0 0h6l1 7-2 1h-27v-7z" fill="#AD19B8"/>
<path transform="translate(1288,379)" d="m0 0h1l1 11-1 3 2 1-6 11-5 7-13 10-4 1v-2l3-1 1-3h2v-2l3-2v-3l5-4 8-15z" fill="#AB18B6"/>
<path transform="translate(1063,979)" d="m0 0h2v2l2 1-1 2-3 2 4 2-17 4h-11l2-1v-2l-2-1 4-1 1-2 2 1v-2l8-3z" fill="#AC18B7"/>
<path transform="translate(909,844)" d="m0 0h28l1 6-1 1h-28l-1-6z" fill="#AD19B8"/>
<path transform="translate(865,844)" d="m0 0h28v6l-1 1h-27l-1-1v-5z" fill="#AD19B8"/>
<path transform="translate(1039,844)" d="m0 0h24l1 1v5l-1 1h-28l-1-5z" fill="#AD19B8"/>
<path transform="translate(865,744)" d="m0 0h28v6l-2 1h-26l-1-5z" fill="#AD19B8"/>
<path transform="translate(1039,732)" d="m0 0h24l1 1v5l-2 1h-27v-6z" fill="#AD19B8"/>
<path transform="translate(1235,324)" d="m0 0h1l1 5 1 94h-3z" fill="#AD19B8"/>
<path transform="translate(839,1021)" d="m0 0h1l1 8h3l1 5 13 4 1 1v5l-11-1-9-1-3-4 2-11z" fill="#AA16B5"/>
<path transform="translate(1039,1013)" d="m0 0h9l3 3-4 3h2l-3 9-5 2h-5l-1-1v-7h2v-2l2-2v-3l-7 2h-6l3-2z" fill="#AC18B7"/>
<path transform="translate(946,497)" d="m0 0 5 1 3 5v11l-11-3-4 1-3 3h-2l1 4 6 2-2 3-6-1-2-3v-6l6-5 8-3 1-1z" fill="#AD19B8"/>
<path transform="translate(1036,566)" d="m0 0 1 4-1 5 4 9 8 9v2l7 2 3 8 2 3v5l-4-1-4-5-3-6-9-12-3-5-4-8-2-1 1-4z" fill="#AA17B5"/>
<path transform="translate(1006,732)" d="m0 0h13l1 1v5l-14 1h-16l-1-1v-5z" fill="#AD19B8"/>
<path transform="translate(876,732)" d="m0 0h16l1 1v5l-2 1h-26v-6z" fill="#AD19B8"/>
<path transform="translate(999,821)" d="m0 0h20l1 5-1 1-28 1-2-1v-5z" fill="#AD19B8"/>
<path transform="translate(990,777)" d="m0 0h29v6h-29l-1-5z" fill="#AD19B8"/>
<path transform="translate(909,732)" d="m0 0h28v6l-28 1z" fill="#AD19B8"/>
<path transform="translate(549,373)" d="m0 0h3l-2 5-12 24-7 15-5 13-2-4 2-3-1-2h2l1-7 8-17 3-2 3-6 1-8 2-2 1-4z" fill="#AD19B8"/>
<path transform="translate(812,1021)" d="m0 0h1v5l5-1 1-2 1 3 11 3 2 3-3 6-9-3-11-4-1-2z" fill="#AC18B7"/>
<path transform="translate(704,918)" d="m0 0 3 1-9 5-9 11-12 16-4-1 1-5 4-5 2-3 2-1 1-2 2 1-1-3 3-1 1-3h2v-2l5-5z" fill="#AC18B7"/>
<path transform="translate(909,821)" d="m0 0h28v6h-28l-1-4z" fill="#AD19B8"/>
<path transform="translate(690,1021)" d="m0 0 4 2 12 8v3l4 3 6-1v4l1 2-5 2-9-2-2-4-2-1v-4l-3-3v-2h-2v-2h-2z" fill="#AC18B7"/>
<path transform="translate(816,991)" d="m0 0 3 1-2 6-13 19-3 2 2-8h-4v-7h1v5h3l2-6 6-10z" fill="#AC18B7"/>
<path transform="translate(1041,821)" d="m0 0h22l1 5-1 1h-28l-1-4z" fill="#AD19B8"/>
<path transform="translate(1014,833)" d="m0 0 6 1-1 5-29 1-1-1v-5z" fill="#AD19B8"/>
<path transform="translate(783,977)" d="m0 0 5 1 1 3-5 14-2-1 2-5v-4l-3 1-1 7 1 2-2 10h-2l1 9 2 2-4 1-3-3 5-28 4-8z" fill="#AD19B8"/>
<path transform="translate(1052,1020)" d="m0 0 2 3-1 6-2 4 1 5 8 8 1 4-7 1-11-12 2-1v-3h3l3-14z" fill="#AC18B7"/>
<path transform="translate(784,984)" d="m0 0h1v5l-2 5v6h3l1-2h2v3h-2l-2 4-2 8-2 2-4-1-1-6 1-3h2v-8-3l1-8z" fill="#9806A0"/>
<path transform="translate(866,777)" d="m0 0h26l1 5-1 1h-27v-5z" fill="#AD19B8"/>
<path transform="translate(1011,855)" d="m0 0h7l2 2-1 4h-30v-5z" fill="#AD19B8"/>
<path transform="translate(876,821)" d="m0 0h16l1 5-1 1h-27l-1-4 1-1z" fill="#AD19B8"/>
<path transform="translate(1014,756)" d="m0 0h5l1 4-1 2h-29l-1-5z" fill="#AD19B8"/>
<path transform="translate(990,722)" d="m0 0h30v5l-30 1-1-5z" fill="#AD19B8"/>
<path transform="translate(1052,777)" d="m0 0h11l1 1v5h-29v-5z" fill="#AD19B8"/>
<path transform="translate(1053,756)" d="m0 0h10l1 5-1 1h-28v-5z" fill="#AD19B8"/>
<path transform="translate(865,722)" d="m0 0h28v5l-4 1h-24l-1-5z" fill="#AD19B8"/>
<path transform="translate(953,356)" d="m0 0h1v60l-2-2-2-9v-7l1-8v-18l-1-9z" fill="#AD19B8"/>
<path transform="translate(882,855)" d="m0 0h10l1 1v5h-28l-1-4 1-1z" fill="#AD19B8"/>
<path transform="translate(932,833)" d="m0 0 5 1v5l-28 1-1-1v-5z" fill="#AD19B8"/>
<path transform="translate(1058,855)" d="m0 0h5l1 1v5h-29l-1-4 1-1z" fill="#AD19B8"/>
<path transform="translate(748,958)" d="m0 0 5 1-1 5-9 13-4 5-1-4h-3l1-4 3-3 7-11z" fill="#AC18B7"/>
<path transform="translate(1059,833)" d="m0 0 5 1v5h-29l-1-4 1-1z" fill="#AD19B8"/>
<path transform="translate(1035,722)" d="m0 0h29v5l-4 1-25-1-1-3z" fill="#AD19B8"/>
<path transform="translate(910,756)" d="m0 0h27v5l-4 1h-24v-5z" fill="#AD19B8"/>
<path transform="translate(909,722)" d="m0 0h29v5h-30z" fill="#AD19B8"/>
<path transform="translate(889,833)" d="m0 0 4 1v5l-28 1v-6z" fill="#AD19B8"/>
<path transform="translate(885,756)" d="m0 0h7l1 5-1 1h-27v-5z" fill="#AD19B8"/>
<path transform="translate(1010,446)" d="m0 0 6 1 1 2-1 9-2 2-7-1-4-5 1-4z" fill="#020102"/>
<path transform="translate(909,856)" d="m0 0h29l-1 5h-28z" fill="#AD19B8"/>
<path transform="translate(985,460)" d="m0 0 2 3 2 5 6-1-2 3 4 3v2l6 2 2 4 10 2-1 2h-6l-18-9-5-8-1-6z" fill="#A714B1"/>
<path transform="translate(1274 1e3)" d="m0 0 2 1-5 5-5 1v2l-5 4h-4v2l-5 4-5 3-7 5h-2l-4 2v2l-9 3 5-5 9-6 10-6 9-7z" fill="#AD19B8"/>
<path transform="translate(914,446)" d="m0 0h5l3 4-1 7-4 3-5-1-3-4v-5z" fill="#020102"/>
<path transform="translate(1251,907)" d="m0 0h5l4 3 5-2 3 2-8 3-17 2-1 2-2-6-9-1v-1z" fill="#AD19B8"/>
<path transform="translate(995,395)" d="m0 0h13l-1 12h-5l1-9-2 7-1 1h-5l-1-1v-9z" fill="#AD19B8"/>
<path transform="translate(1222,934)" d="m0 0 4 4 1 3-9 6-2 1-1 6h-1l-1-8-5 2-1 5-4-4 4-3 10-7z" fill="#AD19B8"/>
<path transform="translate(828,738)" d="m0 0h6l2 5v12l-4-2-8-9 1-4z" fill="#FDFDFD"/>
<path transform="translate(947,608)" d="m0 0 11 2h17l8-2 1 3-8 4h-2v2h-2l2-4-9 1-1 3-6-2-9-1-2 1z" fill="#AD19B8"/>
<path transform="translate(1038,559)" d="m0 0h7l4 12 3 7v-7l2 1 1 7v8l-2-3 1-2h-2v2h-3l-4-13-5-7-2-1z" fill="#AD19B8"/>
<path transform="translate(1293,880)" d="m0 0h5l-1 5-7 9-7 3-2-4 9-12z" fill="#9906A0"/>
<path transform="translate(878,582)" d="m0 0 1 4v4h3l1 13-4 4-4-1 2-6-2 5-2 1v-7z" fill="#AD19B8"/>
<path transform="translate(879,322)" d="m0 0 3 2v6l-3 8-2 7h-3l-3-7h-1v-7l2-3v2h2l1-3 1 4 1 1 1-7z" fill="#AC18B7"/>
<path transform="translate(1029,1030)" d="m0 0h1l1 8 5-1h7v1l-6 1 3 15-6 1-2-4-3-15z" fill="#AD19B8"/>
<path transform="translate(1266,518)" d="m0 0 4 1 1 3-10 8-8 4-10 2-1-3 4-2 5-1 8-4h3v-2l-2-1z" fill="#AB17B6"/>
<path transform="translate(997,1089)" d="m0 0h37v1l-36 2-13 1h-31v-2h24z" fill="#AD19B8"/>
<path transform="translate(722,962)" d="m0 0 1 3-1 2 5-2-2 6-7 10-4 1-2-4 7-12z" fill="#AC18B6"/>
<path transform="translate(602,296)" d="m0 0 4 1-6 8-9 11-13 18-1-4 2-3h2l2-6 4-6 2-2 6-7 6-8z" fill="#AC18B7"/>
<path transform="translate(1210,973)" d="m0 0 5 1 1 1v12l-6 2-9-1 4-3 4-4z" fill="#9D0AA5"/>
<path transform="translate(877,597)" d="m0 0 1 3-2 6 4-1 4-5 3-1-1 5-9 11-4 1-1-5-2-1 2-8 2 3z" fill="#AA16B5"/>
<path transform="translate(1e3 1023)" d="m0 0 3 1-1 20-1-3-4-1-2-1v-11z" fill="#97059E"/>
<path transform="translate(1098,1012)" d="m0 0 10 2v2l4 1-4 2-3 3-1 5h2l1 3-1 1v6l-3-1-5-23z" fill="#9806A0"/>
<path transform="translate(1164,972)" d="m0 0h3l3 10 2 6v4l-3 1-1-2-2 1-4-13v-5z" fill="#A915B3"/>
<path transform="translate(1011,808)" d="m0 0 2 1 2 3 3-3h1v6h-29l-1-2 1-3 4 1 5-1v3l3-1 1 1 2-4 2 1v4h2z" fill="#AD19B8"/>
<path transform="translate(636,259)" d="m0 0 3 1-1 4-8 7-6 8-8 7-6 8-1-3 3-6v-3l3 1v-2l3-3 5-1 1-4h2l1-3h2l2-5 4-3z" fill="#AD19B8"/>
<path transform="translate(762,966)" d="m0 0 9 2 4 4 2 6v5l-2 1v-6h-2l-2-3-2 1v-5l-7 1-3 1-5-1 2-4z" fill="#9C0AA5"/>
<path transform="translate(904,1043)" d="m0 0 2 3 1 3 7 4h6 3l-4 3-10 1-6-3-4-5 2-4h3z" fill="#AC18B7"/>
<path transform="translate(1222,960)" d="m0 0 2 1 1 5 3 4-2 2 1 3h2l1-2 3 3-3 2h-6l-8-11 1-2 2 1v-2h2z" fill="#AA16B4"/>
<path transform="translate(1219,425)" d="m0 0h7l2 1v4l2 1-13 7-3 2-3-3 2-4 8-5 1-2z" fill="#AB17B6"/>
<path transform="translate(848,1013)" d="m0 0h1v5l12 3 1 1v5l-5 1-12-2 3-4z" fill="#AD19B8"/>
<path transform="translate(1133,993)" d="m0 0h6l3 4-2 5-5 2-5-1-1-7z" fill="#FDFDFD"/>
<path transform="translate(1216,197)" d="m0 0 5 1h5v2l6 2 3 3v2h2l2 4 9 6-3 1-14-10-13-8-2-1z" fill="#A814B2"/>
<path transform="translate(1021,128)" d="m0 0h50l6 2-3 2-5-1h-19l-22-1-7-1z" fill="#96049D"/>
<path transform="translate(890,985)" d="m0 0 7 2 2 5-1 2-14-1-6-1 1-4 9-1z" fill="#AB17B6"/>
<path transform="translate(951,906)" d="m0 0 4 1 7 3h4v2l13 1-2 2-3 1h-10l-10-4-4-5z" fill="#AC18B6"/>
<path transform="translate(972,1020)" d="m0 0h20v5l-1 1-12 1h-3l2-4h-5l-2 3v-5z" fill="#AD19B8"/>
<path transform="translate(1193,462)" d="m0 0 3 2v2h2l-2 22-4-2-1-3 1-3v-14z" fill="#AD19B8"/>
<path transform="translate(934,1019)" d="m0 0h13l9 1 1 4-3 3-13-1 2-2-3-3-6-1z" fill="#AC18B6"/>
<path transform="translate(853 1e3)" d="m0 0 7 1 9 3-1 5h-7l-11-3 3-1z" fill="#AC18B7"/>
<path transform="translate(1022,1026)" d="m0 0h2l2 5v16l-3 5-1-2-1-4v-12z" fill="#9906A0"/>
<path transform="translate(940,563)" d="m0 0h8l7 4h6l10 4-3 2-9-1-8-4-3-1h-11z" fill="#AC18B7"/>
<path transform="translate(519,442)" d="m0 0 1 3-6 18-5 19-2 6h-1l1-9 4-15 2-12 2-4 2-1z" fill="#AD19B8"/>
<path transform="translate(1037,1021)" d="m0 0h8l2 2-1 5-5 2h-5l-1-1v-7z" fill="#FDFDFD"/>
<path transform="translate(1211,945)" d="m0 0 3 1v8h2l1 6-3 1-1-3-5-2-2-7z" fill="#96049E"/>
<path transform="translate(764,970)" d="m0 0 5 1v5h2v2l-4-2-1-1h-6l-8 8v-2l-2-1h2v-5l-2-2 4-2h5 3z" fill="#AC18B7"/>
<path transform="translate(890,1015)" d="m0 0 3 1 2 5v11l-4 9-5 1 2-8 3-1 2-10h-2z" fill="#9806A0"/>
<path transform="translate(568,343)" d="m0 0h3l-2 4-15 25h-1v-5-1-2l2-2 1-3 5-1v-8l5-2v-2h2z" fill="#AD19B8"/>
<path transform="translate(771,974)" d="m0 0 2 4h2l1 9-1 5-4 3-1-4-1-5 1-11z" fill="#AD19B8"/>
<path transform="translate(1093,1026)" d="m0 0 5 1 1 8-2 4-8-1z" fill="#9806A0"/>
<path transform="translate(741,180)" d="m0 0h6v2h6v1l-9 3-11 7-5 3-2-1 4-6h6v-2h2v-2l4-1z" fill="#AC18B7"/>
<path transform="translate(1e3 282)" d="m0 0 5 1 1 3 6 2 7 7 2 4-4-2-10-7-2-1v-2l-6-1z" fill="#AD19B8"/>
<path transform="translate(1113,1010)" d="m0 0h6l2 5-6 3-4-1-3-1-1-3 2-2z" fill="#AC18B7"/>
<path transform="translate(912,795)" d="m0 0h22l1 3-4 1h-18l-3-2z" fill="#FDFDFD"/>
<path transform="translate(495,663)" d="m0 0h1l2 19 3 16-1 4v-2l-3-1-1-19h-2v-10z" fill="#AB17B6"/>
<path transform="translate(1e3 193)" d="m0 0 16 2 3 3 3 15-5-2 1-5-2-8-6-1-7 1-2 5-1-4z" fill="#AD19B8"/>
<path transform="translate(769,989)" d="m0 0 1 2 2 1h2l-2 5-5 5h-3l1-5-3-1z" fill="#AD19B8"/>
<path transform="translate(913,596)" d="m0 0h1v56l4 2-2 3h-3z" fill="#AD19B8"/>
<path transform="translate(1134,987)" d="m0 0m-1 1m-1 1h1v5l-5 2v3l-4 1-3-3 1-4 6-3z" fill="#96049D"/>
<path transform="translate(869,128)" d="m0 0h21l17 1v1l-18 1h-23z" fill="#95039C"/>
<path transform="translate(918,1020)" d="m0 0h3l3 3 1-2 2 4v4l-6-1-6-4-6 1-3 2 2-4 3-1h7z" fill="#AB17B6"/>
<path transform="translate(939,395)" d="m0 0h5l-1 13h-5v-12z" fill="#9B08A3"/>
<path transform="translate(1230,777)" d="m0 0 3 1 14 1v1l-12 1-2 4-1 7-1-4h-2l-1-7h-3v-2z" fill="#96049D"/>
<path transform="translate(992,474)" d="m0 0 9 2 4 3v2l10 2-1 2h-6l-16-8z" fill="#AD19B8"/>
<path transform="translate(801,331)" d="m0 0 3 2v9l5 2 2 4-1 2-5-1-4-3z" fill="#AC18B7"/>
<path transform="translate(903,680)" d="m0 0 10 4 18 4 1 3-10-2-16-4-4-3z" fill="#AC18B7"/>
<path transform="translate(937,509)" d="m0 0h3l-2 4-4 2 1 4 6 2-2 3-6-1-2-3v-6z" fill="#AD19B8"/>
<path transform="translate(930,809)" d="m0 0 2 1 4-1 1 1v5h-13v-5h5z" fill="#AF1FBA"/>
<path transform="translate(947,608)" d="m0 0 16 3v3l-5 1-9-1-2 1z" fill="#A613B0"/>
<path transform="translate(693,709)" d="m0 0h21v1l-8 1v2h-13l-1-3z" fill="#96049D"/>
<path transform="translate(683 1e3)" d="m0 0 4 1 14 7 2 4h-4l-12-8z" fill="#AC18B7"/>
<path transform="translate(661,984)" d="m0 0 7 1 6 7 4 3v2l4 2 1 2-4-2-17-13z" fill="#AD19B8"/>
<path transform="translate(903,583)" d="m0 0 3 3v44h-1l-1-39-1-3-1-4z" fill="#AD19B8"/>
<path transform="translate(883,502)" d="m0 0h1l4 23 1 3v7l-2-1-3-10-2-1 2-3-1-8z" fill="#AD19B8"/>
<path transform="translate(935,474)" d="m0 0 2 1-9 6-9 4-4-1 10-7 9-2z" fill="#AD19B8"/>
<path transform="translate(942,691)" d="m0 0h7l5 1h34v1l-12 1h-28l-10-1z" fill="#AD19B8"/>
<path transform="translate(1120,329)" d="m0 0 3 1 1 5-1 5 1 5-2 2-8 1 3-2h4l-2-6h2l-2-8-4-2z" fill="#AD19B8"/>
<path transform="translate(909,810)" d="m0 0h12l1 5h-13z" fill="#AD19B8"/>
<path transform="translate(878,767)" d="m0 0h8v4h2l-1-4h5v5l-6 1-3-1v-4h-2v5h-3z" fill="#AD19B8"/>
<path transform="translate(884,809)" d="m0 0 1 3 2-1-1-2h3l3 3v3h-15l1-5h3v3h2z" fill="#AD19B8"/>
<path transform="translate(1036,767)" d="m0 0h10v5l-1 1-10-1z" fill="#B737C1"/>
<path transform="translate(1212,434)" d="m0 0 2 1-2 2 2 4-5 4h-6l-1 3-1-3z" fill="#9C09A4"/>
<path transform="translate(994,795)" d="m0 0h22l-2 3h-19l-2-2z" fill="#FDFDFD"/>
<path transform="translate(1172,992)" d="m0 0h1l3 15-1 4-7 1 3-2-2-2 2-1-1-2z" fill="#AD19B8"/>
<path transform="translate(1112,995)" d="m0 0h3v3h2l-2 4-2 1h-8l5-7z" fill="#9906A0"/>
<path transform="translate(783,977)" d="m0 0 5 1 1 3-5 14-2-1 2-5v-6h-2v-5z" fill="#AD19B8"/>
<path transform="translate(709,952)" d="m0 0h1l-1 13-3 10-5-2-1-1v-7h1l1 5h4l2-16z" fill="#AD19B8"/>
<path transform="translate(910,395)" d="m0 0 3 1v9l-1 3h-4v-11z" fill="#AD19B8"/>
<path transform="translate(973,1035)" d="m0 0 2 1 2 5v10h-4z" fill="#95039C"/>
<path transform="translate(1011,986)" d="m0 0h7l-1 4h-18l-3-2z" fill="#9C09A4"/>
<path transform="translate(937,189)" d="m0 0 6 1 1 4-2 3-2-4-14-1-1 2-1-4z" fill="#AD19B8"/>
<path transform="translate(964,188)" d="m0 0 6 1 1 5-4-1h-15l1-2z" fill="#AD19B8"/>
<path transform="translate(934,1020)" d="m0 0h6l1 3 3 1-6 3-3 1-1 2z" fill="#95039C"/>
<path transform="translate(794,995)" d="m0 0h2v9h-1l-1-6-9 12-2-2 4-7h2v-3z" fill="#AD19B8"/>
<path transform="translate(1108,1018)" d="m0 0 4 1-4 2v5l1 1 8 1-1 2h-9l-1-3h-2v-5z" fill="#AD19B8"/>
<path transform="translate(749,974)" d="m0 0 4 1-1 10-4-1-2-1v-5z" fill="#9806A0"/>
<path transform="translate(1233,780)" d="m0 0h14l-1 2 2 2h-15v-3z" fill="#AD19B8"/>
<path transform="translate(1070,226)" d="m0 0 5 2 8 6v1h-6l-1-2-7-1v-5z" fill="#A915B4"/>
<path transform="translate(734,946)" d="m0 0 3 1 1 2v7l-2 14h-1v-11l-1-10-2-2z" fill="#AD19B8"/>
<path transform="translate(1181,430)" d="m0 0h1l2 15v15l-2-2-1-9z" fill="#AD19B8"/>
<path transform="translate(864,129)" d="m0 0 3 1-5 1v2l-13 4h-4v-2z" fill="#9A08A2"/>
<path transform="translate(872,809)" d="m0 0 3 1 1 5h-11l1-5 4 1 2 1z" fill="#AD19B8"/>
<path transform="translate(1018,639)" d="m0 0h1l1 15-5-5-1-4v-4l4 1z" fill="#AC18B7"/>
<path transform="translate(1036,566)" d="m0 0 1 4-1 5 4 10-3-1-4-8-2-1 1-4z" fill="#AD19B8"/>
<path transform="translate(930,396)" d="m0 0h4v12h-4z" fill="#AD19B8"/>
<path transform="translate(1027,200)" d="m0 0 10 2 6 3v2l-16-4-2 6h-1l1-7z" fill="#AD19B8"/>
<path transform="translate(1013,395)" d="m0 0h4v11l-4 1z" fill="#AD19B8"/>
<path transform="translate(1214,1035)" d="m0 0 2 1 1 6h-2v2h2v5l-4-1-2-5 2-1z" fill="#AD19B8"/>
<path transform="translate(1250,779)" d="m0 0 4 1v7l-2 3-1-5-5-2-1-2z" fill="#96039D"/>
<path transform="translate(884,574)" d="m0 0h2v10l-2 5-2-1v-9z" fill="#AD19B8"/>
<path transform="translate(1220,937)" d="m0 0 2 1-3 4h-3l-1 3-1-4 5-1zm-7 5m-2 1 3 1-4 3-3 2-1 4-3-5z" fill="#A411AE"/>
<path transform="translate(990,768)" d="m0 0h11l-1 3-3 2-7-1z" fill="#AD19B8"/>
<path transform="translate(716,971)" d="m0 0 1 4 2 2v3l-2 2-4-1-1-3z" fill="#AC18B7"/>
<path transform="translate(1229,948)" d="m0 0h4l1 5-5 6-5 1 4-5 1-3v-3z" fill="#AD19B8"/>
<path transform="translate(940,563)" d="m0 0h8l8 5-2 1-6-2h-11z" fill="#AD19B8"/>
<path transform="translate(914,1034)" d="m0 0 7 1 4 2h-5v2l-3 1h-4l-1-4z" fill="#AD19B8"/>
<path transform="translate(1242,960)" d="m0 0 4 3-1 5-4-2-6-1 5-4z" fill="#AD19B8"/>
<path transform="translate(686,954)" d="m0 0 6 1v3l-3 3-5-1 1-5z" fill="#AD19B8"/>
<path transform="translate(877,589)" d="m0 0h1v8l-4 9h-1v-7l3-9z" fill="#FDFDFD"/>
<path transform="translate(878,597)" d="m0 0h2l1 4h2l-2 4-2 2-4-1z" fill="#FDFDFD"/>
<path transform="translate(760,997)" d="m0 0h5v5l-4 1-7-3 4-2z" fill="#98059F"/>
<path transform="translate(870,795)" d="m0 0h17l-2 2-8 1h-6l-2-2z" fill="#FDFDFD"/>
<path transform="translate(1214,782)" d="m0 0h7l-12 6-5 1 1-3z" fill="#9A08A2"/>
<path transform="translate(1258,524)" d="m0 0h4v2l-13 6-3-1v-2z" fill="#9B09A3"/>
<path transform="translate(784,984)" d="m0 0h1v5l-2 5-2 1-2-2 1-7z" fill="#95039C"/>
<path transform="translate(1203,957)" d="m0 0h1v5l-3 2-6-2-4 2 1-3 5-2z" fill="#AD19B8"/>
<path transform="translate(1044,546)" d="m0 0 14 5-3 1-8-1v5h-1l-2-6z" fill="#AD19B8"/>
<path transform="translate(763,172)" d="m0 0 4 1v2l-11 5 1-5z" fill="#AD19B8"/>
<path transform="translate(1048,767)" d="m0 0h3v5h2v-5h3v5l-1 1h-7z" fill="#AD19B8"/>
<path transform="translate(874,1042)" d="m0 0 12 1-2 5-10-4z" fill="#95039C"/>
<path transform="translate(867,767)" d="m0 0 5 1v5h-6l-1-5z" fill="#AD19B8"/>
<path transform="translate(944,1035)" d="m0 0h9l1 1v5l-1 1h-6l4-5-7-1z" fill="#AD19B8"/>
<path transform="translate(973,1022)" d="m0 0h5v3l-1 4-4 1-1-7z" fill="#95039C"/>
<path transform="translate(1052,1020)" d="m0 0 2 3-1 6-3 6-1-4 2-10z" fill="#AD19B8"/>
<path transform="translate(764,970)" d="m0 0 5 1v5h2v2l-4-2-7-2z" fill="#AA17B5"/>
<path transform="translate(771,980)" d="m0 0h1l1 6h2v6l-4 3-1-6z" fill="#97049E"/>
<path transform="translate(816,991)" d="m0 0 3 1-2 6h-5l1-6z" fill="#9D0BA6"/>
<path transform="translate(1058,983)" d="m0 0 3 4-6 3-6-1 4-3 5-1z" fill="#95039C"/>
<path transform="translate(702,891)" d="m0 0h12l-1 3h-9l-2-1z" fill="#95039C"/>
<path transform="translate(1052,209)" d="m0 0 4 2 2 5h-3v-2l-6 1 2-5z" fill="#AC18B7"/>
<path transform="translate(727,983)" d="m0 0 1 2 2 1v2h5l-1 4-5-1-3-2z" fill="#AD19B8"/>
<path transform="translate(710,684)" d="m0 0h4v7h-2v2h-2z" fill="#9907A1"/>
<path transform="translate(946,497)" d="m0 0 5 1v4l-4 4z" fill="#A410AD"/>
<path transform="translate(1232,207)" d="m0 0 5 2 11 8-3 1-13-9z" fill="#9C09A4"/>
<path transform="translate(791,1016)" d="m0 0 2 4 1 3h3l4-4-2 5-1 1-7-1-1-5z" fill="#AD19B8"/>
<path transform="translate(1058,767)" d="m0 0h5v6h-5z" fill="#AD19B8"/>
<path transform="translate(690,1021)" d="m0 0 4 2 6 4-1 2-5-1v-2h-2z" fill="#AA16B5"/>
<path transform="translate(1234,872)" d="m0 0h4v4l7 1v1h-7l-4-2-1-3z" fill="#AD19B8"/>
<path transform="translate(1302,844)" d="m0 0h1l1 14-1 3h-3z" fill="#95039C"/>
<path transform="translate(981,274)" d="m0 0h6l1 4h-8z" fill="#A20FAB"/>
<path transform="translate(1099,250)" d="m0 0 4 4-1 4h-3l-1-1z" fill="#AD19B8"/>
<path transform="translate(717,971)" d="m0 0h5l-1 6-3 1-2-4z" fill="#96049E"/>
<path transform="translate(981,400)" d="m0 0h1v12l-1-4-3 1v-5l3-1z" fill="#95039C"/>
<path transform="translate(890,1015)" d="m0 0 3 1 2 5v3l-4-1z" fill="#9B08A3"/>
<path transform="translate(1146,982)" d="m0 0h3l1 3-1 5-5-4z" fill="#95039C"/>
<path transform="translate(652,977)" d="m0 0h3l-1 2-4 5-5 4 1-5 2-1 1-2h2z" fill="#AD19B8"/>
<path transform="translate(783,977)" d="m0 0h4v5l-5 1v-5z" fill="#9907A1"/>
<path transform="translate(736,928)" d="m0 0 5 1 2 4-2 1-6-4z" fill="#A814B2"/>
<path transform="translate(983,496)" d="m0 0 3 1 1 7-3-3-3 1 1-5z" fill="#AD19B8"/>
<path transform="translate(1026,302)" d="m0 0h2l3 6 3 4-1 2-8-9z" fill="#AD19B8"/>
<path transform="translate(1090,243)" d="m0 0 4 1 2 3h-6l-5 4 2-4z" fill="#A512AF"/>
<path transform="translate(872,213)" d="m0 0 3 1 2 6-6-3-4 1z" fill="#A915B3"/>
</svg>
